HIERARCHY
ROOT joint_Root
{
	OFFSET 0.0 0.0 0.0
	CHANNELS 6 Xposition Yposition Zposition Zrotation Xrotation Yrotation 
	JOINT Hips
	{
		OFFSET 4.5925 91.4895 -427.239
		CHANNELS 6 Xposition Yposition Zposition Zrotation Xrotation Yrotation 
		JOINT Spine
		{
			OFFSET 15.7357 0.0 0.0
			CHANNELS 6 Xposition Yposition Zposition Zrotation Xrotation Yrotation 
			JOINT Chest
			{
				OFFSET 8.98455 -0.406207 0.0
				CHANNELS 6 Xposition Yposition Zposition Zrotation Xrotation Yrotation 
				JOINT Neck
				{
					OFFSET 16.3773 0.0 0.0
					CHANNELS 6 Xposition Yposition Zposition Zrotation Xrotation Yrotation 
					JOINT Head
					{
						OFFSET 6.45672 0.0 0.0
						CHANNELS 6 Xposition Yposition Zposition Zrotation Xrotation Yrotation 
						End Site
						{
							OFFSET 0.0 0.0 0.0
						}
					}
				}
				JOINT Shoulder_L
				{
					OFFSET 12.9942 -0.242716 4.98039
					CHANNELS 6 Xposition Yposition Zposition Zrotation Xrotation Yrotation 
					JOINT UpperArm_L
					{
						OFFSET 5.34809 0.0 0.0
						CHANNELS 6 Xposition Yposition Zposition Zrotation Xrotation Yrotation 
						JOINT LowerArm_L
						{
							OFFSET 24.3286 1.87007e-05 0.0
							CHANNELS 6 Xposition Yposition Zposition Zrotation Xrotation Yrotation 
							JOINT Hand_L
							{
								OFFSET 22.2916 0.0 0.0
								CHANNELS 6 Xposition Yposition Zposition Zrotation Xrotation Yrotation 
								End Site
								{
									OFFSET 0.0 0.0 0.0
								}
							}
						}
					}
				}
				JOINT Shoulder_R
				{
					OFFSET 12.9945 -0.242716 -4.98039
					CHANNELS 6 Xposition Yposition Zposition Zrotation Xrotation Yrotation 
					JOINT UpperArm_R
					{
						OFFSET -5.34813 0.0 0.0
						CHANNELS 6 Xposition Yposition Zposition Zrotation Xrotation Yrotation 
						JOINT LowerArm_R
						{
							OFFSET -24.3289 0.000322201 0.0
							CHANNELS 6 Xposition Yposition Zposition Zrotation Xrotation Yrotation 
							JOINT Hand_R
							{
								OFFSET -22.2915 -0.000108084 0.0
								CHANNELS 6 Xposition Yposition Zposition Zrotation Xrotation Yrotation 
								End Site
								{
									OFFSET 0.0 0.0 0.0
								}
							}
						}
					}
				}
			}
		}
		JOINT UpperLeg_L
		{
			OFFSET -2.19248 -6.46944 0.0
			CHANNELS 6 Xposition Yposition Zposition Zrotation Xrotation Yrotation 
			JOINT LowerLeg_L
			{
				OFFSET 39.0811 0.0 -1.23785e-05
				CHANNELS 6 Xposition Yposition Zposition Zrotation Xrotation Yrotation 
				JOINT Foot_L
				{
					OFFSET 40.9854 0.0 -1.26872e-05
					CHANNELS 6 Xposition Yposition Zposition Zrotation Xrotation Yrotation 
					JOINT Toes_L
					{
						OFFSET 11.7543 0.0 0.0
						CHANNELS 6 Xposition Yposition Zposition Zrotation Xrotation Yrotation 
						End Site
						{
							OFFSET 0.0 0.0 0.0
						}
					}
				}
			}
		}
		JOINT UpperLeg_R
		{
			OFFSET -2.19251 6.46944 0.0
			CHANNELS 6 Xposition Yposition Zposition Zrotation Xrotation Yrotation 
			JOINT LowerLeg_R
			{
				OFFSET -39.0811 -0.00228153 -0.0401928
				CHANNELS 6 Xposition Yposition Zposition Zrotation Xrotation Yrotation 
				JOINT Foot_R
				{
					OFFSET -40.9854 0.0 0.0
					CHANNELS 6 Xposition Yposition Zposition Zrotation Xrotation Yrotation 
					JOINT Toes_R
					{
						OFFSET -11.7543 0.0 0.0
						CHANNELS 6 Xposition Yposition Zposition Zrotation Xrotation Yrotation 
						End Site
						{
							OFFSET 0.0 0.0 0.0
						}
					}
				}
			}
		}
	}
}
MOTION
Frames:	4
Frame Time:	0.0333333
0.000000 0.000000 0.000000 0.000000 0.000000 -0.000000 6.516050 90.426000 2.555000 88.821300 -8.491560 12.309600 15.735700 0.000005 -0.000001 90.080000 83.757100 -90.452200 8.984550 -0.406207 -0.000000 4.719930 0.027295 -0.744495 16.377300 -0.000001 -0.000001 34.143000 -5.906270 1.354500 6.456720 -0.000001 -0.000000 16.301900 -9.030470 -6.757540 12.994200 -0.242716 4.980390 -86.504500 -7.216490 -64.067800 5.348090 -0.000007 -0.000001 -58.637300 -55.180100 -76.883800 24.328600 0.000019 0.000005 4.632630 8.557930 -28.569500 22.291600 -0.000001 0.000005 19.149600 5.044090 6.367200 12.994500 -0.242716 -4.980390 92.360700 -6.771250 -70.727900 -5.348130 -0.000001 -0.000004 -56.900800 -52.425100 -76.453300 -24.328900 0.000322 -0.000009 -7.768110 -13.968500 -29.468700 -22.291500 -0.000108 -0.000004 32.672400 5.355190 -1.533700 -2.192480 -6.469440 -0.000000 -178.208000 -15.224900 4.533070 39.081100 -0.000007 -0.000012 -0.001456 0.002471 30.527300 40.985400 -0.000006 -0.000013 4.173530 0.828511 -73.250200 11.754300 -0.000000 0.000003 -0.000070 -0.000755 -16.606700 -2.192510 6.469440 -0.000001 169.687000 14.636600 -175.753000 -39.081100 -0.002282 -0.040193 -0.081288 0.151947 29.105500 -40.985400 0.000008 0.000006 -0.110494 13.606900 -69.916700 -11.754300 -0.000006 -0.000006 -0.004178 -0.053278 -18.740400
0.000000 0.000000 0.000000 0.000000 0.000000 -0.000000 6.578640 90.403200 2.648140 88.759000 -8.622050 12.493100 15.735700 0.000005 -0.000001 90.234400 83.837000 -90.575800 8.984550 -0.406207 -0.000000 4.560230 0.059888 -0.684257 16.377300 -0.000001 -0.000001 33.820400 -5.832320 1.374660 6.456720 -0.000001 -0.000000 16.313400 -8.908130 -6.989740 12.994200 -0.242716 4.980390 -86.424400 -7.447450 -64.261600 5.348090 -0.000007 -0.000001 -56.947400 -53.037800 -78.663900 24.328600 0.000019 0.000005 4.620950 7.885800 -30.502800 22.291600 -0.000001 0.000005 20.478800 5.068150 5.834370 12.994500 -0.242716 -4.980390 92.435500 -7.061690 -70.915300 -5.348130 -0.000001 -0.000004 -54.261000 -50.444300 -77.162400 -24.328900 0.000322 -0.000009 -7.891480 -13.029200 -31.580700 -22.291500 -0.000108 -0.000004 31.843300 5.379980 -2.298060 -2.192480 -6.469440 -0.000000 -178.138000 -15.228000 4.803960 39.081100 -0.000007 -0.000012 -0.001450 0.002456 30.563500 40.985400 -0.000006 -0.000013 4.184960 0.727055 -73.363800 11.754300 -0.000000 0.000003 -0.000079 -0.000838 -16.609900 -2.192510 6.469440 -0.000001 169.690000 14.524200 -175.557000 -39.081100 -0.002282 -0.040193 -0.065699 0.123592 29.175000 -40.985400 0.000008 0.000006 0.124347 13.582300 -70.056100 -11.754300 -0.000006 -0.000006 -0.003980 -0.051230 -18.657000
0.000000 0.000000 0.000000 0.000000 0.000000 -0.000000 6.617700 90.381400 2.730360 88.707800 -8.780550 12.689000 15.735700 0.000005 -0.000001 90.256100 83.916200 -90.584000 8.984550 -0.406207 -0.000000 4.401700 0.063930 -0.657356 16.377300 -0.000001 -0.000001 33.503600 -5.840540 1.313010 6.456720 -0.000001 -0.000000 16.334800 -8.828040 -7.113900 12.994200 -0.242716 4.980390 -86.350700 -7.684290 -64.499700 5.348090 -0.000007 -0.000001 -54.746200 -50.910900 -80.405100 24.328600 0.000019 0.000005 4.642980 7.245900 -32.777000 22.291600 -0.000001 0.000005 21.505700 5.092210 5.291650 12.994500 -0.242716 -4.980390 92.502400 -7.369260 -71.184300 -5.348130 -0.000001 -0.000004 -51.024600 -48.338900 -77.919500 -24.328900 0.000322 -0.000009 -7.761230 -11.889800 -33.481900 -22.291500 -0.000108 -0.000004 32.145700 5.418590 -3.551320 -2.192480 -6.469440 -0.000000 -178.072000 -15.200000 5.046390 39.081100 -0.000007 -0.000012 -0.002547 0.004304 30.622000 40.985400 -0.000006 -0.000013 4.152560 0.550312 -73.455500 11.754300 -0.000000 0.000003 -0.000080 -0.000852 -16.610400 -2.192510 6.469440 -0.000001 169.738000 14.385500 -175.398000 -39.081100 -0.002282 -0.040193 -0.039307 0.075849 29.326500 -40.985400 0.000008 0.000006 0.667205 13.462200 -70.313900 -11.754300 -0.000006 -0.000006 -0.004287 -0.054391 -18.785800
0.000000 0.000000 0.000000 0.000000 0.000000 -0.000000 6.632880 90.369900 2.790540 88.669500 -8.953150 12.786800 15.735700 0.000005 -0.000001 90.206300 84.031300 -90.544300 8.984550 -0.406207 -0.000000 4.171550 0.053507 -0.677191 16.377300 -0.000001 -0.000001 33.132000 -5.879000 1.455320 6.456720 -0.000001 -0.000000 16.462500 -8.884110 -7.493840 12.994200 -0.242716 4.980390 -86.240900 -7.978500 -64.669200 5.348090 -0.000007 -0.000001 -52.156200 -48.778100 -82.252700 24.328600 0.000019 0.000005 4.955320 7.088560 -35.091500 22.291600 -0.000001 0.000005 22.528000 5.123720 4.564690 12.994500 -0.242716 -4.980390 92.581000 -7.683570 -71.368600 -5.348130 -0.000001 -0.000004 -48.048000 -46.134500 -79.377900 -24.328900 0.000322 -0.000009 -7.298840 -10.499400 -35.098700 -22.291500 -0.000108 -0.000004 33.094500 5.457320 -4.903100 -2.192480 -6.469440 -0.000000 -177.988000 -15.348000 5.231250 39.081100 -0.000007 -0.000012 0.000662 -0.001117 30.618300 40.985400 -0.000006 -0.000013 4.149890 0.498417 -73.527200 11.754300 -0.000000 0.000003 -0.000081 -0.000854 -16.610500 -2.192510 6.469440 -0.000001 169.819000 14.269000 -175.343000 -39.081100 -0.002282 -0.040193 -0.015109 0.032614 29.446200 -40.985400 0.000008 0.000006 1.171190 13.350300 -70.528000 -11.754300 -0.000006 -0.000006 -0.004428 -0.055821 -18.844000
